# xmcd
#
# Track frame offsets: 
#        150
#        10289
#        21613
#        33923
#        47113
#        57611
#        69361
#        78279
#        88889
#        100316
#        112405
#        123007
#        133789
#        145339
#        154951
#        165995
#        175468
#        184604
#
# Disc length: 2611 seconds
#
# Revision: 0
# Processed by: cddbd v1.5.2PL0 Copyright (c) Steve Scherf et al.
# Submitted via: ExactAudioCopy v0.99pb4
#
DISCID=000a3112
DTITLE=Various Artist - The Very Best Of Wynn Stewart and Jan Howard
DYEAR=1959
DGENRE=Country
TTITLE0=Wynn Stewart and Jan Howard - Wrong Company
TTITLE1=Wynn Stewart and Jan Howard - We'll Never Love Again
TTITLE2=Wynn Stewart - Wishful Thinking
TTITLE3=Jan Howard - A World I Can't Live In
TTITLE4=Jan Howard - The One You Slip Around With
TTITLE5=Jan Howard - Faded Love
TTITLE6=Wynn Stewart - Above And Beyond
TTITLE7=Wynn Stewart and Jan Howard - How The Other Half Lives
TTITLE8=Jan Howard - Make An Honest Woman Out Of Me
TTITLE9=Jan Howard - Too Many Teardrops Too Late
TTITLE10=Wynn Stewart - Playboy
TTITLE11=Wynn Stewart - Big, Big Love
TTITLE12=Wynn Stewart and Jan Howard - Yankee Go Home
TTITLE13=Jan Howard - Let Me Know
TTITLE14=Jan Howard - Ages And Ages Ago
TTITLE15=Wynn Stewart - Uncle Tom Got Caught
TTITLE16=Jan Howard - Bring It On Back To Me
TTITLE17=Wynn Stewart - Heartaches For A Dime
EXTD=
EXTT0=
EXTT1=
EXTT2=
EXTT3=
EXTT4=
EXTT5=
EXTT6=
EXTT7=
EXTT8=
EXTT9=
EXTT10=
EXTT11=
EXTT12=
EXTT13=
EXTT14=
EXTT15=
EXTT16=
EXTT17=
PLAYORDER=
